<svg version="1.1" xmlns="http://www.w3.org/2000/svg" xmlns:xlink="http://www.w3.org/1999/xlink" width="50" height="50" viewBox="0,0,50,50"><g transform="translate(-215,-155)"><g data-paper-data="{&quot;isPaintingLayer&quot;:true}" fill-rule="nonzero" stroke="none" stroke-linecap="butt" stroke-linejoin="miter" stroke-miterlimit="10" stroke-dasharray="" stroke-dashoffset="0" style="mix-blend-mode: normal"><path d="M265,180c0,13.80694 -11.19306,25 -25,25c-13.80556,0 -25,-11.19306 -25,-25c0,-13.80556 11.19444,-25 25,-25c13.80694,0 25,11.19444 25,25" fill="#ffcc4d" stroke-width="1"/><path d="M248.31199,186.9231c0,-3.83532 3.10913,-6.94444 6.94444,-6.94444c3.83532,0 6.94444,3.10912 6.94444,6.94444c0,3.83532 -3.10912,6.94444 -6.94444,6.94444c-3.83532,0 -6.94444,-3.10913 -6.94444,-6.94444z" fill="#ff7892" stroke-width="1"/><path d="M217.75643,186.9231c0,-3.83532 3.10912,-6.94444 6.94444,-6.94444c3.83532,0 6.94444,3.10912 6.94444,6.94444c0,3.83532 -3.10912,6.94444 -6.94444,6.94444c-3.83532,0 -6.94444,-3.10913 -6.94444,-6.94444z" fill="#ff7892" stroke-width="1"/><path d="M241.36754,177.89532c0,-4.21885 3.42004,-7.63889 7.63889,-7.63889c4.21885,0 7.63889,3.42004 7.63889,7.63889c0,4.21885 -3.42004,7.63889 -7.63889,7.63889c-4.21885,0 -7.63889,-3.42004 -7.63889,-7.63889z" fill="#f5f8fa" stroke-width="1"/><path d="M223.31199,177.89532c0,-4.21885 3.42004,-7.63889 7.63889,-7.63889c4.21885,0 7.63889,3.42004 7.63889,7.63889c0,4.21885 -3.42004,7.63889 -7.63889,7.63889c-4.21885,0 -7.63889,-3.42004 -7.63889,-7.63889z" fill="#f5f8fa" stroke-width="1"/><path d="M227.47865,177.89532c0,-1.91765 1.55457,-3.47222 3.47222,-3.47222c1.91765,0 3.47222,1.55457 3.47222,3.47222c0,1.91765 -1.55457,3.47222 -3.47222,3.47222c-1.91765,0 -3.47222,-1.55457 -3.47222,-3.47222z" fill="#292f33" stroke-width="1"/><path d="M245.53421,177.89532c0,-1.91765 1.55457,-3.47222 3.47222,-3.47222c1.91765,0 3.47222,1.55457 3.47222,3.47222c0,1.91765 -1.55457,3.47222 -3.47222,3.47222c-1.91765,0 -3.47222,-1.55457 -3.47222,-3.47222z" fill="#292f33" stroke-width="1"/><path d="M256.64671,170.25643c-0.42361,0 -0.83889,-0.19167 -1.1125,-0.55556c-3.66667,-4.89028 -8.41806,-4.99722 -8.61944,-5c-0.76389,-0.00833 -1.38056,-0.63333 -1.37639,-1.39583c0.00417,-0.76528 0.62083,-1.38194 1.38472,-1.38194c0.25556,0 6.30139,0.06944 10.83333,6.11111c0.46111,0.61389 0.33611,1.48472 -0.27778,1.94444c-0.25,0.1875 -0.54167,0.27778 -0.83194,0.27778zM223.3106,170.25643c-0.28889,0 -0.58194,-0.09028 -0.83194,-0.27778c-0.61389,-0.45972 -0.7375,-1.33056 -0.27778,-1.94444c4.53056,-6.04167 10.57778,-6.11111 10.83333,-6.11111c0.76667,0 1.38889,0.62222 1.38889,1.38889c0,0.76528 -0.61806,1.38611 -1.38333,1.38889c-0.21528,0.00278 -4.95556,0.11944 -8.61667,5c-0.27222,0.36389 -0.69028,0.55556 -1.1125,0.55556z" fill="#664500" stroke-width="1"/><path d="M240.12303,200.31347c-0.18292,-0.00083 -0.38196,-0.00942 -0.592,-0.02894c-1.19949,-0.27851 -1.46937,-0.52464 -1.53957,-0.81915c-0.05497,-0.23065 0.01254,-0.49099 -0.14808,-0.81982c-0.66149,-1.35428 -0.46279,-3.30403 -0.46279,-4.74354c0,-1.72376 1.27606,-3.28697 1.74446,-4.76258c0.05731,-0.18051 0.30667,-0.76558 0.34604,-0.78097c0.05719,-0.03017 -0.04835,-0.60197 0.01472,-0.60076c0.46549,0.00888 0.75883,-0.41921 1.07901,-0.36936c1.10475,0.17199 1.42675,0.52212 1.53258,0.59711c1.08522,0.76885 1.94956,2.02435 2.31914,3.25404c0.42137,1.70356 0.76283,3.49079 0.67856,4.99244c-0.0545,0.97108 -0.14786,1.67065 -0.60112,2.20131c-1.06938,1.252 -3.10954,1.886 -4.37096,1.88024z" data-paper-data="{&quot;index&quot;:null}" fill="#654400" stroke-width="0.5"/><path d="M240.03896,200.3389c-1.26142,0.00576 -3.30158,-0.62824 -4.37096,-1.88024c-0.45326,-0.53065 -0.54663,-1.23022 -0.60113,-2.20131c-0.08428,-1.50165 0.25718,-3.16543 0.70942,-4.99244c0.46218,-1.19883 1.20306,-2.48519 2.28828,-3.25404c0.13651,-0.09674 0.35488,-0.58176 2.42643,-0.62126c0.06306,-0.00121 0.14271,0.96411 0.1999,0.99428c0.03937,0.01539 0.28875,0.60046 0.34604,0.78097c0.4684,1.47561 1.74446,3.03882 1.74446,4.76258c0,1.43951 0.19869,3.38926 -0.46279,4.74354c-0.16062,0.32882 -0.09311,0.58917 -0.14808,0.81982c-0.07018,0.29451 -0.09315,0.44806 -1.29264,0.72657c-0.21004,0.01953 -0.656,0.12071 -0.83892,0.12153z" data-paper-data="{&quot;index&quot;:null}" fill="#654400" stroke-width="0.5"/><path d="M236.20975,196.18639c0,-1.33621 1.00243,-2.03942 1.97615,-2.49976c0.26649,-0.07342 1.20889,-0.22918 2.13472,-0.1854c0.68379,0.03232 1.35854,0.21936 1.74528,0.39154c0.80279,0.35743 1.81787,1.33335 1.84426,2.37378c0.023,0.90689 -0.53775,1.80885 -1.32657,2.29492c-0.83744,0.51603 -2.02004,0.79074 -2.47715,0.81536c-0.77844,0.04192 -1.70107,-0.14351 -2.39571,-0.50904c-0.97713,-0.51415 -1.50099,-1.58637 -1.50099,-2.6814z" fill="#e85a71" stroke-width="0.5"/></g></g></svg>
